<svg xmlns="http://www.w3.org/2000/svg" width="393.7" height="393.7" viewBox="0 0 3940.939 3940.939">
  <metadata><?xpacket begin="﻿" id="W5M0MpCehiHzreSzNTczkc9d"?>
<x:xmpmeta xmlns:x="adobe:ns:meta/" x:xmptk="Adobe XMP Core 5.6-c142 79.160924, 2017/07/13-01:06:39        ">
   <rdf:RDF xmlns:rdf="http://www.w3.org/1999/02/22-rdf-syntax-ns#">
      <rdf:Description rdf:about=""/>
   </rdf:RDF>
</x:xmpmeta>
                                                                                                    
                                                                                                    
                                                                                                    
                                                                                                    
                                                                                                    
                                                                                                    
                                                                                                    
                                                                                                    
                                                                                                    
                                                                                                    
                                                                                                    
                                                                                                    
                                                                                                    
                                                                                                    
                                                                                                    
                                                                                                    
                                                                                                    
                                                                                                    
                                                                                                    
                                                                                                    
                           
<?xpacket end="w"?></metadata>
<defs>
    <style>
      .cls-1 {
        fill: #fff;
        fill-rule: evenodd;
      }
    </style>
  </defs>
  <path id="my_vector_mask_shape" class="cls-1" d="M2000,29.524c1088.26,0,1970.48,882.212,1970.48,1970.476S3088.26,3970.48,2000,3970.48,29.524,3088.26,29.524,2000,911.736,29.524,2000,29.524ZM1990,1206c60.28-.14,80.56,32.95,107,66q66.99,76.995,134,154,303.975,348.465,608,697,88.485,102.99,177,206c20.28,33.59,10.07,80.69-10,106-21.49,27.1-77.29,40.2-114,18-27.12-16.4-48.51-48.58-68-73q-49.995-56.49-100-113-361.965-416.955-724-834c-1,.67-2,1.33-3,2q-363.96,419.46-728,839-49.995,56.49-100,113c-17.75,22.25-37.11,51.24-62,66-36.1,21.4-91.43,9.92-113-17-20.387-25.44-31.9-72.48-11-107q92.49-107.49,185-215,276.975-317.475,554-635,66.495-76.485,133-153c24.79-30.96,68.83-90.93,102-110Q1973.5,1211.005,1990,1206Z" transform="translate(-29.531 -29.531)"/>
</svg>
