<svg xmlns="http://www.w3.org/2000/svg" width="999.92" height="999.92" viewBox="0 0 2081 2081">
  <metadata><?xpacket begin="﻿" id="W5M0MpCehiHzreSzNTczkc9d"?>
<x:xmpmeta xmlns:x="adobe:ns:meta/" x:xmptk="Adobe XMP Core 5.6-c142 79.160924, 2017/07/13-01:06:39        ">
   <rdf:RDF xmlns:rdf="http://www.w3.org/1999/02/22-rdf-syntax-ns#">
      <rdf:Description rdf:about=""/>
   </rdf:RDF>
</x:xmpmeta>
                                                                                                                                                                                               
                           
<?xpacket end="w"?></metadata>
<defs>
    <style>
      .cls-1 {
        fill: #fff;
        fill-rule: evenodd;
      }
    </style>
  </defs>
  <path id="logos" class="cls-1" d="M1060.5,20C1635.15,20,2101,485.848,2101,1060.5S1635.15,2101,1060.5,2101,20,1635.15,20,1060.5,485.848,20,1060.5,20Zm92.27,97.443C1156.61,131.976,987.78,428.609,962,462.63l-140.8-2.271,2.27-2.27Q988.1,287.782,1152.77,117.443ZM416.953,485.34H1659.21V735.146H1180.02V871.4L893.872,807.817V735.146H416.953V485.34ZM532.777,757.856H793.946q-11.355,22.707-22.711,45.42Q1276.488,917.948,1781.85,1032.64l-2.27,2.27q-287.265,289.53-574.58,579.1-1.125-157.815-2.27-315.66,34.065-62.445,68.13-124.91-465.51-105.585-931.122-211.2ZM1180.02,1670.79H893.872V1109.86q143.061,31.785,286.148,63.58v497.35Zm-195.307,22.7,140.807,2.28c-0.76.75-1.52,1.51-2.27,2.27q-153.285,152.13-306.594,304.31Q900.677,1847.94,984.713,1693.49Z" transform="translate(-20 -20)"/>
</svg>
