<?xml version="1.0" encoding="utf-8"?>
<svg xmlns="http://www.w3.org/2000/svg"
	xmlns:xlink="http://www.w3.org/1999/xlink"
	width="84px" height="84px" viewBox="0 0 84 84">
<g><circle cx="42.00" cy="42.00" r="42.00" fill="rgb(255,255,255)" opacity="0.26"/><path fillRule="evenodd" d="M 63.89 48.35C 63.89 48.35 43.89 25.36 43.89 25.36 43.41 24.81 42.72 24.5 42 24.5 41.28 24.5 40.59 24.81 40.12 25.36 40.12 25.36 20.11 48.35 20.11 48.35 19.2 49.39 19.31 50.97 20.35 51.88 21.4 52.79 22.97 52.68 23.88 51.64 23.88 51.64 42 30.81 42 30.81 42 30.81 60.12 51.63 60.12 51.63 61.03 52.68 62.61 52.79 63.65 51.88 64.69 50.97 64.8 49.39 63.89 48.35 63.89 48.35 63.89 48.35 63.89 48.35Z" fill="rgb(255,255,255)"/></g></svg>